<?xml version="1.0" encoding="utf-8"?>
<!-- Generator: Adobe Illustrator 18.0.0, SVG Export Plug-In . SVG Version: 6.00 Build 0)  -->
<!DOCTYPE svg PUBLIC "-//W3C//DTD SVG 1.1//EN" "http://www.w3.org/Graphics/SVG/1.1/DTD/svg11.dtd">
<svg version="1.1" id="圖層_1" xmlns="http://www.w3.org/2000/svg" xmlns:xlink="http://www.w3.org/1999/xlink" x="0px" y="0px"
	 viewBox="25 0 200 50" enable-background="new 25 0 200 50" xml:space="preserve">
<g id="圖層_2">
</g>
<g>
	<g>
		<path fill="#FFFFFF" d="M120,20.9v4h14.7v1.5h-17.7V25h1.6V10.2h-1.4V8.7h17.2v1.4H120v3.5h12.6v7.3H120z M120,19.5h11.1v-4.4H120
			V19.5z"/>
		<path fill="#FFFFFF" d="M151.8,12.8v1.3h-6v-1.3H151.8z M153.3,25.1c-1.6,0.8-3.8,1.5-6.7,2l-0.7-1.2c2.9-0.5,5.2-1.1,6.7-1.8
			L153.3,25.1z M151.4,9.1v1.3h-5.2V9.1H151.4z M161.9,15.7V24h-13.6v-8.3H161.9z M160.4,18.2v-1.3h-10.6v1.3H160.4z M160.4,20.4
			v-1.2h-10.6v1.2H160.4z M160.4,21.5h-10.6v1.3h10.6V21.5z M152.7,12.7l-0.8-1.1c1.5-1,2.6-2.3,3.1-3.8l1.4,0.2
			c-0.1,0.4-0.3,0.8-0.5,1.1h7.5v1.1c-0.5,1.1-1.2,2-1.8,2.8l-1-0.8c0.5-0.5,0.9-1.1,1.3-1.8h-6.7C154.5,11.2,153.7,12,152.7,12.7z
			 M158.9,10.9c-0.1,0.3-0.2,0.7-0.3,0.9c1.5,1.5,3.5,2.5,5.8,2.8l-0.6,1.3c-2.3-0.4-4.2-1.3-5.8-3c-1,1.4-2.6,2.3-4.8,2.7l-0.7-1.1
			c2.9-0.5,4.6-1.8,5.2-3.9L158.9,10.9z M164.3,26l-0.5,1.2c-2.2-0.8-4.6-1.5-7-1.9l0.5-1.1C159.7,24.6,162.1,25.2,164.3,26z"/>
		<path fill="#FFFFFF" d="M193,8.8v1.5h-7.8v7.9h8.6v1.4h-8.6v7.4h-1.6v-7.4h-8.4v-1.4h8.4v-7.9H176V8.8H193z M180.8,16.4l-1.4,0.7
			c-0.7-1.8-1.5-3.4-2.3-4.8l1.4-0.7C179.4,13.1,180.1,14.7,180.8,16.4z M191.9,12.2c-0.6,1.7-1.5,3.3-2.5,4.9l-1.3-0.7
			c1-1.6,1.8-3.2,2.5-4.8L191.9,12.2z"/>
		<path fill="#FFFFFF" d="M205.1,14.8c1.8-0.6,4.1-3,6.9-7l1.6,0.5c-1.9,2.7-3.8,4.8-5.7,6.4c4-0.2,7.9-0.4,11.5-0.8
			c-0.8-1.1-1.6-2.2-2.5-3.2l1.4-0.7c1.8,2.1,3.5,4.4,5,7l-1.5,0.7c-0.5-0.9-1-1.7-1.6-2.5c-4.4,0.4-9.4,0.7-14.8,0.9L205.1,14.8z
			 M220.9,27.1h-1.5v-1.1h-11v1.1h-1.5v-8.8h14V27.1z M219.3,24.6v-4.8h-11v4.8H219.3z"/>
	</g>
	<g>
		<path fill="#FFFFFF" d="M118.1,33.7h0.8v7.1h3v0.8h-3.8V33.7z"/>
		<path fill="#FFFFFF" d="M128.9,35.8v5.8h-0.7v-1c-0.3,0.4-0.7,0.7-1.1,0.9c-0.4,0.2-0.8,0.3-1.3,0.3c-0.8,0-1.5-0.3-2.1-0.9
			c-0.6-0.6-0.9-1.3-0.9-2.2c0-0.8,0.3-1.6,0.9-2.2c0.6-0.6,1.3-0.9,2.1-0.9c0.5,0,0.9,0.1,1.3,0.3c0.4,0.2,0.7,0.5,1,0.9v-1.1
			H128.9z M125.9,36.3c-0.4,0-0.8,0.1-1.2,0.3c-0.4,0.2-0.6,0.5-0.8,0.9c-0.2,0.4-0.3,0.8-0.3,1.2c0,0.4,0.1,0.8,0.3,1.2
			c0.2,0.4,0.5,0.7,0.9,0.9c0.4,0.2,0.7,0.3,1.1,0.3c0.4,0,0.8-0.1,1.2-0.3c0.4-0.2,0.7-0.5,0.8-0.8c0.2-0.4,0.3-0.8,0.3-1.2
			c0-0.7-0.2-1.2-0.7-1.7S126.6,36.3,125.9,36.3z"/>
		<path fill="#FFFFFF" d="M130.3,35.8h0.8v0.9c0.2-0.3,0.5-0.6,0.7-0.8c0.3-0.2,0.5-0.2,0.8-0.2c0.2,0,0.4,0.1,0.7,0.2l-0.4,0.6
			c-0.2-0.1-0.3-0.1-0.4-0.1c-0.3,0-0.5,0.1-0.7,0.3c-0.2,0.2-0.4,0.5-0.5,1c-0.1,0.3-0.1,1-0.1,2v2h-0.8V35.8z"/>
		<path fill="#FFFFFF" d="M139,35.8h0.8v4.7c0,0.8-0.1,1.4-0.2,1.8c-0.2,0.5-0.5,1-1,1.2c-0.5,0.3-1.1,0.4-1.8,0.4
			c-0.5,0-1-0.1-1.4-0.2s-0.7-0.3-1-0.6c-0.2-0.2-0.5-0.6-0.7-1h0.8c0.2,0.4,0.5,0.7,0.9,0.9c0.4,0.2,0.8,0.3,1.3,0.3
			c0.5,0,0.9-0.1,1.3-0.3c0.4-0.2,0.6-0.4,0.8-0.7s0.2-0.8,0.2-1.4v-0.3c-0.3,0.4-0.6,0.6-1,0.8c-0.4,0.2-0.8,0.3-1.3,0.3
			c-0.5,0-1-0.1-1.5-0.4c-0.5-0.3-0.8-0.6-1.1-1.1s-0.4-0.9-0.4-1.5s0.1-1,0.4-1.5c0.3-0.5,0.6-0.8,1.1-1.1c0.5-0.3,1-0.4,1.5-0.4
			c0.4,0,0.8,0.1,1.2,0.3s0.7,0.5,1.1,0.9V35.8z M136.7,36.3c-0.4,0-0.8,0.1-1.2,0.3s-0.7,0.5-0.9,0.9c-0.2,0.4-0.3,0.8-0.3,1.2
			c0,0.6,0.2,1.2,0.6,1.6c0.4,0.4,1,0.6,1.7,0.6c0.7,0,1.2-0.2,1.7-0.6s0.6-1,0.6-1.6c0-0.4-0.1-0.8-0.3-1.2s-0.5-0.6-0.8-0.8
			C137.5,36.4,137.1,36.3,136.7,36.3z"/>
		<path fill="#FFFFFF" d="M146.2,39.7l0.6,0.3c-0.2,0.4-0.4,0.7-0.7,1c-0.3,0.2-0.6,0.4-0.9,0.6s-0.7,0.2-1.2,0.2
			c-1,0-1.7-0.3-2.2-0.9c-0.5-0.6-0.8-1.3-0.8-2.1c0-0.7,0.2-1.4,0.7-2c0.6-0.7,1.3-1.1,2.3-1.1c1,0,1.8,0.4,2.4,1.1
			c0.4,0.5,0.6,1.2,0.6,2h-5.3c0,0.7,0.2,1.2,0.7,1.7c0.4,0.4,0.9,0.7,1.6,0.7c0.3,0,0.6-0.1,0.9-0.2c0.3-0.1,0.5-0.2,0.7-0.4
			C145.8,40.3,146,40.1,146.2,39.7z M146.2,38.1c-0.1-0.4-0.2-0.7-0.4-1c-0.2-0.2-0.4-0.4-0.8-0.6c-0.3-0.1-0.6-0.2-1-0.2
			c-0.6,0-1.1,0.2-1.5,0.6c-0.3,0.3-0.5,0.7-0.7,1.2H146.2z"/>
		<path fill="#FFFFFF" d="M148.6,41.6v-7.9h1.6c1.2,0,2,0.1,2.6,0.3c0.8,0.3,1.4,0.7,1.8,1.4s0.6,1.5,0.6,2.4c0,0.8-0.2,1.5-0.5,2.1
			s-0.8,1-1.3,1.3s-1.3,0.4-2.3,0.4H148.6z M149.3,40.9h0.9c1.1,0,1.8-0.1,2.3-0.2c0.6-0.2,1.1-0.5,1.4-1c0.3-0.5,0.5-1.1,0.5-1.8
			c0-0.8-0.2-1.4-0.6-2c-0.4-0.5-0.9-0.9-1.5-1.1c-0.5-0.2-1.3-0.2-2.4-0.2h-0.6V40.9z"/>
		<path fill="#FFFFFF" d="M162.5,35.8v5.8h-0.7v-1c-0.3,0.4-0.7,0.7-1.1,0.9c-0.4,0.2-0.8,0.3-1.3,0.3c-0.8,0-1.5-0.3-2.1-0.9
			c-0.6-0.6-0.9-1.3-0.9-2.2c0-0.8,0.3-1.6,0.9-2.2c0.6-0.6,1.3-0.9,2.1-0.9c0.5,0,0.9,0.1,1.3,0.3c0.4,0.2,0.7,0.5,1,0.9v-1.1
			H162.5z M159.5,36.3c-0.4,0-0.8,0.1-1.2,0.3c-0.4,0.2-0.6,0.5-0.8,0.9s-0.3,0.8-0.3,1.2c0,0.4,0.1,0.8,0.3,1.2
			c0.2,0.4,0.5,0.7,0.9,0.9s0.7,0.3,1.1,0.3c0.4,0,0.8-0.1,1.2-0.3c0.4-0.2,0.7-0.5,0.9-0.8c0.2-0.4,0.3-0.8,0.3-1.2
			c0-0.7-0.2-1.2-0.7-1.7S160.1,36.3,159.5,36.3z"/>
		<path fill="#FFFFFF" d="M164.8,33.6h0.8v2.2h1.2v0.7h-1.2v5.2h-0.8v-5.2h-1v-0.7h1V33.6z"/>
		<path fill="#FFFFFF" d="M173.7,35.8v5.8H173v-1c-0.3,0.4-0.7,0.7-1.1,0.9c-0.4,0.2-0.8,0.3-1.3,0.3c-0.8,0-1.5-0.3-2.1-0.9
			c-0.6-0.6-0.9-1.3-0.9-2.2c0-0.8,0.3-1.6,0.9-2.2c0.6-0.6,1.3-0.9,2.1-0.9c0.5,0,0.9,0.1,1.3,0.3c0.4,0.2,0.7,0.5,1,0.9v-1.1
			H173.7z M170.7,36.3c-0.4,0-0.8,0.1-1.2,0.3c-0.4,0.2-0.6,0.5-0.8,0.9s-0.3,0.8-0.3,1.2c0,0.4,0.1,0.8,0.3,1.2
			c0.2,0.4,0.5,0.7,0.9,0.9c0.4,0.2,0.7,0.3,1.1,0.3c0.4,0,0.8-0.1,1.2-0.3c0.4-0.2,0.7-0.5,0.8-0.8c0.2-0.4,0.3-0.8,0.3-1.2
			c0-0.7-0.2-1.2-0.7-1.7S171.4,36.3,170.7,36.3z"/>
		<path fill="#FFFFFF" d="M178.6,33.7h1.6c0.9,0,1.5,0,1.8,0.1c0.5,0.1,0.8,0.3,1.1,0.7c0.3,0.3,0.4,0.8,0.4,1.3
			c0,0.5-0.1,1-0.4,1.3s-0.7,0.6-1.2,0.7c-0.4,0.1-1,0.1-2,0.1h-0.6v3.7h-0.8V33.7z M179.4,34.5v2.7l1.3,0c0.5,0,0.9,0,1.2-0.1
			c0.3-0.1,0.4-0.3,0.6-0.5c0.1-0.2,0.2-0.5,0.2-0.7c0-0.3-0.1-0.5-0.2-0.7c-0.1-0.2-0.3-0.4-0.6-0.5s-0.6-0.1-1.2-0.1H179.4z"/>
		<path fill="#FFFFFF" d="M184.9,33.5h0.8v8.1h-0.8V33.5z"/>
		<path fill="#FFFFFF" d="M193,35.8v5.8h-0.7v-1c-0.3,0.4-0.7,0.7-1.1,0.9c-0.4,0.2-0.8,0.3-1.3,0.3c-0.8,0-1.5-0.3-2.1-0.9
			c-0.6-0.6-0.9-1.3-0.9-2.2c0-0.8,0.3-1.6,0.9-2.2c0.6-0.6,1.3-0.9,2.1-0.9c0.5,0,0.9,0.1,1.3,0.3c0.4,0.2,0.7,0.5,1,0.9v-1.1H193z
			 M190,36.3c-0.4,0-0.8,0.1-1.2,0.3c-0.4,0.2-0.6,0.5-0.8,0.9s-0.3,0.8-0.3,1.2c0,0.4,0.1,0.8,0.3,1.2c0.2,0.4,0.5,0.7,0.9,0.9
			c0.4,0.2,0.7,0.3,1.1,0.3c0.4,0,0.8-0.1,1.2-0.3c0.4-0.2,0.7-0.5,0.8-0.8c0.2-0.4,0.3-0.8,0.3-1.2c0-0.7-0.2-1.2-0.7-1.7
			S190.6,36.3,190,36.3z"/>
		<path fill="#FFFFFF" d="M195.3,33.6h0.8v2.2h1.2v0.7h-1.2v5.2h-0.8v-5.2h-1v-0.7h1V33.6z"/>
		<path fill="#FFFFFF" d="M200.8,33.5v0.7c-0.3-0.1-0.5-0.2-0.7-0.2c-0.1,0-0.3,0-0.4,0.1c-0.1,0.1-0.2,0.1-0.2,0.2
			c0,0.1,0,0.3,0,0.6l0,0.8h1.2v0.7h-1.2l0,5.2h-0.8v-5.2H198v-0.7h0.8v-0.9c0-0.4,0-0.7,0.1-0.9c0.1-0.2,0.2-0.3,0.4-0.4
			s0.4-0.2,0.7-0.2C200.2,33.4,200.5,33.4,200.8,33.5z"/>
		<path fill="#FFFFFF" d="M204.6,35.6c0.9,0,1.6,0.3,2.2,1c0.5,0.6,0.8,1.3,0.8,2.1c0,0.8-0.3,1.5-0.9,2.1c-0.6,0.6-1.3,0.9-2.2,0.9
			c-0.9,0-1.6-0.3-2.2-0.9c-0.6-0.6-0.9-1.3-0.9-2.1c0-0.8,0.3-1.5,0.8-2.1C203,36,203.7,35.6,204.6,35.6z M204.6,36.4
			c-0.6,0-1.2,0.2-1.6,0.7s-0.7,1-0.7,1.7c0,0.4,0.1,0.8,0.3,1.2s0.5,0.6,0.8,0.8c0.3,0.2,0.7,0.3,1.1,0.3s0.8-0.1,1.1-0.3
			c0.3-0.2,0.6-0.5,0.8-0.8s0.3-0.8,0.3-1.2c0-0.7-0.2-1.2-0.7-1.7S205.2,36.4,204.6,36.4z"/>
		<path fill="#FFFFFF" d="M208.8,35.8h0.8v0.9c0.2-0.3,0.5-0.6,0.7-0.8c0.3-0.2,0.5-0.2,0.8-0.2c0.2,0,0.4,0.1,0.7,0.2l-0.4,0.6
			c-0.2-0.1-0.3-0.1-0.4-0.1c-0.3,0-0.5,0.1-0.7,0.3c-0.2,0.2-0.4,0.5-0.5,1c-0.1,0.3-0.1,1-0.1,2v2h-0.8V35.8z"/>
		<path fill="#FFFFFF" d="M212.7,35.8h0.8v1c0.3-0.4,0.5-0.6,0.8-0.8c0.4-0.2,0.8-0.3,1.2-0.3c0.3,0,0.6,0.1,0.8,0.2
			c0.3,0.1,0.5,0.3,0.6,0.4s0.3,0.4,0.4,0.8c0.2-0.5,0.6-0.8,0.9-1c0.4-0.2,0.8-0.4,1.2-0.4c0.4,0,0.8,0.1,1.1,0.3
			c0.3,0.2,0.5,0.5,0.7,0.9c0.2,0.4,0.2,0.9,0.2,1.6v3.2h-0.8v-3.2c0-0.6,0-1.1-0.1-1.3c-0.1-0.2-0.2-0.4-0.5-0.6s-0.5-0.2-0.8-0.2
			c-0.4,0-0.7,0.1-1,0.3c-0.3,0.2-0.5,0.5-0.7,0.9c-0.1,0.4-0.2,1-0.2,1.8v2.3h-0.8v-3c0-0.7,0-1.2-0.1-1.4
			c-0.1-0.3-0.2-0.5-0.5-0.6c-0.2-0.2-0.5-0.2-0.8-0.2c-0.3,0-0.7,0.1-1,0.3c-0.3,0.2-0.5,0.5-0.7,0.8c-0.1,0.4-0.2,0.9-0.2,1.6v2.5
			h-0.8V35.8z"/>
	</g>
</g>
<g>
	<linearGradient id="SVGID_1_" gradientUnits="userSpaceOnUse" x1="48.5494" y1="12.5254" x2="62.924" y2="37.423">
		<stop  offset="0" style="stop-color:#DEC849"/>
		<stop  offset="0.1044" style="stop-color:#D3AF42"/>
		<stop  offset="0.2881" style="stop-color:#C18A37"/>
		<stop  offset="0.4717" style="stop-color:#B46D2F"/>
		<stop  offset="0.6528" style="stop-color:#AA5829"/>
		<stop  offset="0.8303" style="stop-color:#A44B25"/>
		<stop  offset="1" style="stop-color:#A24724"/>
	</linearGradient>
	<path fill="url(#SVGID_1_)" d="M63.8,32.2l-1.9,3.3c0,0-0.2,0.1-0.2,0.1l-12,0c-0.1,0-0.2-0.1-0.2-0.1l-6-10.4c0-0.1,0-0.2,0-0.3
		l6-10.4c0-0.1,0.2-0.1,0.2-0.1l12,0c0.1,0,0.2,0.1,0.2,0.1l1.9,3.1l1.1-1.9l0.2-0.3l-1.3-2c-0.4-0.7-1.3-1.2-2.1-1.2h-12
		c-0.8,0-1.7,0.5-2.1,1.2l-6,10.4c-0.4,0.7-0.4,1.7,0,2.4l6,10.4c0.4,0.7,1.3,1.2,2.1,1.2h12c0.8,0,1.7-0.5,2.1-1.2l1.3-2.2L64.9,34
		L63.8,32.2z"/>
	<linearGradient id="SVGID_2_" gradientUnits="userSpaceOnUse" x1="64.7486" y1="20.7606" x2="69.6438" y2="29.2395">
		<stop  offset="0" style="stop-color:#DEC849"/>
		<stop  offset="0.1044" style="stop-color:#D3AF42"/>
		<stop  offset="0.2881" style="stop-color:#C18A37"/>
		<stop  offset="0.4717" style="stop-color:#B46D2F"/>
		<stop  offset="0.6528" style="stop-color:#AA5829"/>
		<stop  offset="0.8303" style="stop-color:#A44B25"/>
		<stop  offset="1" style="stop-color:#A24724"/>
	</linearGradient>
	<path fill="url(#SVGID_2_)" d="M69.8,23.8l-2.6-4.4l-1,1.7l-0.3,0.4l1.9,3.4c0,0.1,0,0.2,0,0.3l-1.9,3.4l0.3,0.4l1,1.7l2.6-4.4
		C70.2,25.5,70.2,24.5,69.8,23.8z"/>
	<linearGradient id="SVGID_3_" gradientUnits="userSpaceOnUse" x1="70.7211" y1="7.8597" x2="90.513" y2="42.1403">
		<stop  offset="0" style="stop-color:#DEC849"/>
		<stop  offset="0.1044" style="stop-color:#D3AF42"/>
		<stop  offset="0.2881" style="stop-color:#C18A37"/>
		<stop  offset="0.4717" style="stop-color:#B46D2F"/>
		<stop  offset="0.6528" style="stop-color:#AA5829"/>
		<stop  offset="0.8303" style="stop-color:#A44B25"/>
		<stop  offset="1" style="stop-color:#A24724"/>
	</linearGradient>
	<path fill="url(#SVGID_3_)" d="M100.1,23.7l-8.6-15C91,8,90.1,7.5,89.3,7.5H72c-0.9,0-1.8,0.5-2.2,1.3L65.4,16l-1.2,2.2l-3,5.5
		c-0.4,0.7-0.4,1.8,0,2.5l3,5.3l1.2,2.2l4.3,7.5c0.4,0.7,1.4,1.3,2.2,1.3h17.3c0.9,0,1.8-0.5,2.2-1.3l8.6-15
		C100.5,25.5,100.5,24.5,100.1,23.7z M72,9.9h17.2c0,0,0.1,0,0.1,0.1L98,24.9c0,0,0,0.1,0,0.2L89.4,40c0,0-0.1,0.1-0.1,0.1H72
		c0,0-0.1,0-0.1-0.1l-5-8.7l-1.2-2.2l-2.3-4c0,0,0-0.1,0-0.2l2.3-4l1.2-2.2L72,9.9z"/>
</g>
</svg>
