<?xml version="1.0" encoding="utf-8"?>
<!-- Generator: Adobe Illustrator 18.0.0, SVG Export Plug-In . SVG Version: 6.00 Build 0)  -->
<!DOCTYPE svg PUBLIC "-//W3C//DTD SVG 1.1//EN" "http://www.w3.org/Graphics/SVG/1.1/DTD/svg11.dtd">
<svg version="1.1" id="圖層_1" xmlns="http://www.w3.org/2000/svg" xmlns:xlink="http://www.w3.org/1999/xlink" x="0px" y="0px"
	 viewBox="52.5 0 200 50" enable-background="new 52.5 0 200 50" xml:space="preserve">
<g id="圖層_2">
</g>
<g>
	<g>
		<g>
			<path d="M140.2,20.2v4h14.7v1.5h-17.7v-1.4h1.6V9.5h-1.4V8h17.2v1.4h-14.4v3.5h12.6v7.3H140.2z M140.2,18.8h11.1v-4.4h-11.1V18.8
				z"/>
			<path d="M172,12.1v1.3h-6v-1.3H172z M173.5,24.4c-1.6,0.8-3.8,1.5-6.7,2l-0.7-1.2c2.9-0.5,5.2-1.1,6.7-1.8L173.5,24.4z
				 M171.6,8.4v1.3h-5.2V8.4H171.6z M182.1,15v8.3h-13.6V15H182.1z M180.6,17.5v-1.3H170v1.3H180.6z M180.6,19.7v-1.2H170v1.2H180.6
				z M180.6,20.8H170v1.3h10.6V20.8z M172.9,12l-0.8-1.1c1.5-1,2.6-2.3,3.1-3.8l1.4,0.2c-0.1,0.4-0.3,0.8-0.5,1.1h7.5v1.1
				c-0.5,1.1-1.2,2-1.8,2.8l-1-0.8c0.5-0.5,0.9-1.1,1.3-1.8h-6.7C174.7,10.5,173.9,11.3,172.9,12z M179.1,10.2
				c-0.1,0.3-0.2,0.7-0.3,0.9c1.5,1.5,3.5,2.5,5.8,2.8l-0.6,1.3c-2.3-0.4-4.2-1.3-5.8-3c-1,1.4-2.6,2.3-4.8,2.7l-0.7-1.1
				c2.9-0.5,4.6-1.8,5.2-3.9L179.1,10.2z M184.5,25.3l-0.5,1.2c-2.2-0.8-4.6-1.5-7-1.9l0.5-1.1C179.9,23.9,182.3,24.5,184.5,25.3z"
				/>
			<path d="M213.2,8.1v1.5h-7.8v7.9h8.6v1.4h-8.6v7.4h-1.6v-7.4h-8.4v-1.4h8.4V9.6h-7.6V8.1H213.2z M201,15.7l-1.4,0.7
				c-0.7-1.8-1.5-3.4-2.3-4.8l1.4-0.7C199.6,12.4,200.3,14,201,15.7z M212.1,11.5c-0.6,1.7-1.5,3.3-2.5,4.9l-1.3-0.7
				c1-1.6,1.8-3.2,2.5-4.8L212.1,11.5z"/>
			<path d="M225.3,14.1c1.8-0.6,4.1-3,6.9-7l1.6,0.5c-1.9,2.7-3.8,4.8-5.7,6.4c4-0.2,7.9-0.4,11.5-0.8c-0.8-1.1-1.6-2.2-2.5-3.2
				l1.4-0.7c1.8,2.1,3.5,4.4,5,7L242,17c-0.5-0.9-1-1.7-1.6-2.5c-4.4,0.4-9.4,0.7-14.8,0.9L225.3,14.1z M241.1,26.4h-1.5v-1.1h-11
				v1.1h-1.5v-8.8h14V26.4z M239.5,23.9v-4.8h-11v4.8C228.5,23.9,239.5,23.9,239.5,23.9z"/>
		</g>
		<g>
			<path d="M138.3,33h0.8v7.1h3v0.8h-3.8V33z"/>
			<path d="M149.1,35.1v5.8h-0.7v-1c-0.3,0.4-0.7,0.7-1.1,0.9c-0.4,0.2-0.8,0.3-1.3,0.3c-0.8,0-1.5-0.3-2.1-0.9
				c-0.6-0.6-0.9-1.3-0.9-2.2c0-0.8,0.3-1.6,0.9-2.2c0.6-0.6,1.3-0.9,2.1-0.9c0.5,0,0.9,0.1,1.3,0.3c0.4,0.2,0.7,0.5,1,0.9V35h0.8
				V35.1z M146.1,35.6c-0.4,0-0.8,0.1-1.2,0.3c-0.4,0.2-0.6,0.5-0.8,0.9s-0.3,0.8-0.3,1.2s0.1,0.8,0.3,1.2c0.2,0.4,0.5,0.7,0.9,0.9
				c0.4,0.2,0.7,0.3,1.1,0.3c0.4,0,0.8-0.1,1.2-0.3s0.7-0.5,0.8-0.8c0.2-0.4,0.3-0.8,0.3-1.2c0-0.7-0.2-1.2-0.7-1.7
				S146.8,35.6,146.1,35.6z"/>
			<path d="M150.5,35.1h0.8V36c0.2-0.3,0.5-0.6,0.7-0.8c0.3-0.2,0.5-0.2,0.8-0.2c0.2,0,0.4,0.1,0.7,0.2l-0.4,0.6
				c-0.2-0.1-0.3-0.1-0.4-0.1c-0.3,0-0.5,0.1-0.7,0.3s-0.4,0.5-0.5,1c-0.1,0.3-0.1,1-0.1,2v2h-0.8v-5.9H150.5z"/>
			<path d="M159.2,35.1h0.8v4.7c0,0.8-0.1,1.4-0.2,1.8c-0.2,0.5-0.5,1-1,1.2c-0.5,0.3-1.1,0.4-1.8,0.4c-0.5,0-1-0.1-1.4-0.2
				s-0.7-0.3-1-0.6c-0.2-0.2-0.5-0.6-0.7-1h0.8c0.2,0.4,0.5,0.7,0.9,0.9s0.8,0.3,1.3,0.3s0.9-0.1,1.3-0.3c0.4-0.2,0.6-0.4,0.8-0.7
				s0.2-0.8,0.2-1.4v-0.3c-0.3,0.4-0.6,0.6-1,0.8s-0.8,0.3-1.3,0.3s-1-0.1-1.5-0.4c-0.5-0.3-0.8-0.6-1.1-1.1s-0.4-0.9-0.4-1.5
				s0.1-1,0.4-1.5c0.3-0.5,0.6-0.8,1.1-1.1s1-0.4,1.5-0.4c0.4,0,0.8,0.1,1.2,0.3s0.7,0.5,1.1,0.9L159.2,35.1L159.2,35.1z
				 M156.9,35.6c-0.4,0-0.8,0.1-1.2,0.3s-0.7,0.5-0.9,0.9s-0.3,0.8-0.3,1.2c0,0.6,0.2,1.2,0.6,1.6c0.4,0.4,1,0.6,1.7,0.6
				s1.2-0.2,1.7-0.6s0.6-1,0.6-1.6c0-0.4-0.1-0.8-0.3-1.2s-0.5-0.6-0.8-0.8C157.7,35.7,157.3,35.6,156.9,35.6z"/>
			<path d="M166.4,39l0.6,0.3c-0.2,0.4-0.4,0.7-0.7,1c-0.3,0.2-0.6,0.4-0.9,0.6s-0.7,0.2-1.2,0.2c-1,0-1.7-0.3-2.2-0.9
				c-0.5-0.6-0.8-1.3-0.8-2.1c0-0.7,0.2-1.4,0.7-2c0.6-0.7,1.3-1.1,2.3-1.1s1.8,0.4,2.4,1.1c0.4,0.5,0.6,1.2,0.6,2h-5.3
				c0,0.7,0.2,1.2,0.7,1.7c0.4,0.4,0.9,0.7,1.6,0.7c0.3,0,0.6-0.1,0.9-0.2c0.3-0.1,0.5-0.2,0.7-0.4C166,39.6,166.2,39.4,166.4,39z
				 M166.4,37.4c-0.1-0.4-0.2-0.7-0.4-1c-0.2-0.2-0.4-0.4-0.8-0.6c-0.3-0.1-0.6-0.2-1-0.2c-0.6,0-1.1,0.2-1.5,0.6
				c-0.3,0.3-0.5,0.7-0.7,1.2H166.4z"/>
			<path d="M168.8,40.9V33h1.6c1.2,0,2,0.1,2.6,0.3c0.8,0.3,1.4,0.7,1.8,1.4s0.6,1.5,0.6,2.4c0,0.8-0.2,1.5-0.5,2.1s-0.8,1-1.3,1.3
				s-1.3,0.4-2.3,0.4H168.8z M169.5,40.2h0.9c1.1,0,1.8-0.1,2.3-0.2c0.6-0.2,1.1-0.5,1.4-1c0.3-0.5,0.5-1.1,0.5-1.8
				c0-0.8-0.2-1.4-0.6-2c-0.4-0.5-0.9-0.9-1.5-1.1c-0.5-0.2-1.3-0.2-2.4-0.2h-0.6L169.5,40.2L169.5,40.2z"/>
			<path d="M182.7,35.1v5.8H182v-1c-0.3,0.4-0.7,0.7-1.1,0.9c-0.4,0.2-0.8,0.3-1.3,0.3c-0.8,0-1.5-0.3-2.1-0.9
				c-0.6-0.6-0.9-1.3-0.9-2.2c0-0.8,0.3-1.6,0.9-2.2c0.6-0.6,1.3-0.9,2.1-0.9c0.5,0,0.9,0.1,1.3,0.3c0.4,0.2,0.7,0.5,1,0.9V35h0.8
				V35.1z M179.7,35.6c-0.4,0-0.8,0.1-1.2,0.3s-0.6,0.5-0.8,0.9s-0.3,0.8-0.3,1.2s0.1,0.8,0.3,1.2s0.5,0.7,0.9,0.9s0.7,0.3,1.1,0.3
				c0.4,0,0.8-0.1,1.2-0.3s0.7-0.5,0.9-0.8c0.2-0.4,0.3-0.8,0.3-1.2c0-0.7-0.2-1.2-0.7-1.7S180.3,35.6,179.7,35.6z"/>
			<path d="M185,32.9h0.8v2.2h1.2v0.7h-1.2V41H185v-5.2h-1v-0.7h1V32.9z"/>
			<path d="M193.9,35.1v5.8h-0.7v-1c-0.3,0.4-0.7,0.7-1.1,0.9c-0.4,0.2-0.8,0.3-1.3,0.3c-0.8,0-1.5-0.3-2.1-0.9
				c-0.6-0.6-0.9-1.3-0.9-2.2c0-0.8,0.3-1.6,0.9-2.2c0.6-0.6,1.3-0.9,2.1-0.9c0.5,0,0.9,0.1,1.3,0.3c0.4,0.2,0.7,0.5,1,0.9V35h0.8
				V35.1z M190.9,35.6c-0.4,0-0.8,0.1-1.2,0.3s-0.6,0.5-0.8,0.9s-0.3,0.8-0.3,1.2s0.1,0.8,0.3,1.2s0.5,0.7,0.9,0.9s0.7,0.3,1.1,0.3
				c0.4,0,0.8-0.1,1.2-0.3s0.7-0.5,0.8-0.8c0.2-0.4,0.3-0.8,0.3-1.2c0-0.7-0.2-1.2-0.7-1.7S191.6,35.6,190.9,35.6z"/>
			<path d="M198.8,33h1.6c0.9,0,1.5,0,1.8,0.1c0.5,0.1,0.8,0.3,1.1,0.7c0.3,0.3,0.4,0.8,0.4,1.3s-0.1,1-0.4,1.3s-0.7,0.6-1.2,0.7
				c-0.4,0.1-1,0.1-2,0.1h-0.6v3.7h-0.8L198.8,33L198.8,33z M199.6,33.8v2.7h1.3c0.5,0,0.9,0,1.2-0.1s0.4-0.3,0.6-0.5
				c0.1-0.2,0.2-0.5,0.2-0.7c0-0.3-0.1-0.5-0.2-0.7c-0.1-0.2-0.3-0.4-0.6-0.5s-0.6-0.1-1.2-0.1h-1.3V33.8z"/>
			<path d="M205.1,32.8h0.8v8.1h-0.8V32.8z"/>
			<path d="M213.2,35.1v5.8h-0.7v-1c-0.3,0.4-0.7,0.7-1.1,0.9c-0.4,0.2-0.8,0.3-1.3,0.3c-0.8,0-1.5-0.3-2.1-0.9
				c-0.6-0.6-0.9-1.3-0.9-2.2c0-0.8,0.3-1.6,0.9-2.2c0.6-0.6,1.3-0.9,2.1-0.9c0.5,0,0.9,0.1,1.3,0.3c0.4,0.2,0.7,0.5,1,0.9V35h0.8
				V35.1z M210.2,35.6c-0.4,0-0.8,0.1-1.2,0.3s-0.6,0.5-0.8,0.9s-0.3,0.8-0.3,1.2s0.1,0.8,0.3,1.2s0.5,0.7,0.9,0.9s0.7,0.3,1.1,0.3
				c0.4,0,0.8-0.1,1.2-0.3s0.7-0.5,0.8-0.8c0.2-0.4,0.3-0.8,0.3-1.2c0-0.7-0.2-1.2-0.7-1.7S210.8,35.6,210.2,35.6z"/>
			<path d="M215.5,32.9h0.8v2.2h1.2v0.7h-1.2V41h-0.8v-5.2h-1v-0.7h1V32.9z"/>
			<path d="M221,32.8v0.7c-0.3-0.1-0.5-0.2-0.7-0.2c-0.1,0-0.3,0-0.4,0.1c-0.1,0.1-0.2,0.1-0.2,0.2c0,0.1,0,0.3,0,0.6V35h1.2v0.7
				h-1.2v5.2h-0.8v-5.2h-0.7V35h0.8v-0.9c0-0.4,0-0.7,0.1-0.9s0.2-0.3,0.4-0.4s0.4-0.2,0.7-0.2C220.4,32.7,220.7,32.7,221,32.8z"/>
			<path d="M224.8,34.9c0.9,0,1.6,0.3,2.2,1c0.5,0.6,0.8,1.3,0.8,2.1s-0.3,1.5-0.9,2.1c-0.6,0.6-1.3,0.9-2.2,0.9s-1.6-0.3-2.2-0.9
				c-0.6-0.6-0.9-1.3-0.9-2.1s0.3-1.5,0.8-2.1C223.2,35.3,223.9,34.9,224.8,34.9z M224.8,35.7c-0.6,0-1.2,0.2-1.6,0.7
				s-0.7,1-0.7,1.7c0,0.4,0.1,0.8,0.3,1.2s0.5,0.6,0.8,0.8s0.7,0.3,1.1,0.3s0.8-0.1,1.1-0.3s0.6-0.5,0.8-0.8s0.3-0.8,0.3-1.2
				c0-0.7-0.2-1.2-0.7-1.7S225.4,35.7,224.8,35.7z"/>
			<path d="M229,35.1h0.8V36c0.2-0.3,0.5-0.6,0.7-0.8c0.3-0.2,0.5-0.2,0.8-0.2c0.2,0,0.4,0.1,0.7,0.2l-0.4,0.6
				c-0.2-0.1-0.3-0.1-0.4-0.1c-0.3,0-0.5,0.1-0.7,0.3s-0.4,0.5-0.5,1c-0.1,0.3-0.1,1-0.1,2v2h-0.8v-5.9H229z"/>
			<path d="M232.9,35.1h0.8v1c0.3-0.4,0.5-0.6,0.8-0.8c0.4-0.2,0.8-0.3,1.2-0.3c0.3,0,0.6,0.1,0.8,0.2c0.3,0.1,0.5,0.3,0.6,0.4
				s0.3,0.4,0.4,0.8c0.2-0.5,0.6-0.8,0.9-1c0.4-0.2,0.8-0.4,1.2-0.4s0.8,0.1,1.1,0.3s0.5,0.5,0.7,0.9s0.2,0.9,0.2,1.6V41h-0.8v-3.2
				c0-0.6,0-1.1-0.1-1.3s-0.2-0.4-0.5-0.6s-0.5-0.2-0.8-0.2c-0.4,0-0.7,0.1-1,0.3s-0.5,0.5-0.7,0.9c-0.1,0.4-0.2,1-0.2,1.8V41h-0.8
				v-3c0-0.7,0-1.2-0.1-1.4c-0.1-0.3-0.2-0.5-0.5-0.6c-0.2-0.2-0.5-0.2-0.8-0.2s-0.7,0.1-1,0.3s-0.5,0.5-0.7,0.8
				c-0.1,0.4-0.2,0.9-0.2,1.6V41h-0.8v-5.9H232.9z"/>
		</g>
	</g>
	<g>
		
			<linearGradient id="SVGID_1_" gradientUnits="userSpaceOnUse" x1="43.8085" y1="38.2087" x2="58.1831" y2="13.3111" gradientTransform="matrix(1 0 0 -1 25 50)">
			<stop  offset="0" style="stop-color:#DEC849"/>
			<stop  offset="0.1044" style="stop-color:#D3AF42"/>
			<stop  offset="0.2881" style="stop-color:#C18A37"/>
			<stop  offset="0.4717" style="stop-color:#B46D2F"/>
			<stop  offset="0.6528" style="stop-color:#AA5829"/>
			<stop  offset="0.8303" style="stop-color:#A44B25"/>
			<stop  offset="1" style="stop-color:#A24724"/>
		</linearGradient>
		<path fill="url(#SVGID_1_)" d="M84,31.5l-1.9,3.3l-0.2,0.1h-12c-0.1,0-0.2-0.1-0.2-0.1l-6-10.4c0-0.1,0-0.2,0-0.3l6-10.4
			c0-0.1,0.2-0.1,0.2-0.1h12c0.1,0,0.2,0.1,0.2,0.1l1.9,3.1l1.1-1.9l0.2-0.3l-1.3-2c-0.4-0.7-1.3-1.2-2.1-1.2h-12
			c-0.8,0-1.7,0.5-2.1,1.2l-6,10.4c-0.4,0.7-0.4,1.7,0,2.4l6,10.4c0.4,0.7,1.3,1.2,2.1,1.2h12c0.8,0,1.7-0.5,2.1-1.2l1.3-2.2
			l-0.2-0.3L84,31.5z"/>
		
			<linearGradient id="SVGID_2_" gradientUnits="userSpaceOnUse" x1="59.9194" y1="29.9225" x2="64.8124" y2="21.4474" gradientTransform="matrix(1 0 0 -1 25 50)">
			<stop  offset="0" style="stop-color:#DEC849"/>
			<stop  offset="0.1044" style="stop-color:#D3AF42"/>
			<stop  offset="0.2881" style="stop-color:#C18A37"/>
			<stop  offset="0.4717" style="stop-color:#B46D2F"/>
			<stop  offset="0.6528" style="stop-color:#AA5829"/>
			<stop  offset="0.8303" style="stop-color:#A44B25"/>
			<stop  offset="1" style="stop-color:#A24724"/>
		</linearGradient>
		<path fill="url(#SVGID_2_)" d="M90,23.1l-2.6-4.4l-1,1.7l-0.3,0.4l1.9,3.4c0,0.1,0,0.2,0,0.3l-1.9,3.4l0.3,0.4l1,1.7l2.6-4.4
			C90.4,24.8,90.4,23.8,90,23.1z"/>
		
			<linearGradient id="SVGID_3_" gradientUnits="userSpaceOnUse" x1="65.9236" y1="42.8564" x2="85.7197" y2="8.5686" gradientTransform="matrix(1 0 0 -1 25 50)">
			<stop  offset="0" style="stop-color:#DEC849"/>
			<stop  offset="0.1044" style="stop-color:#D3AF42"/>
			<stop  offset="0.2881" style="stop-color:#C18A37"/>
			<stop  offset="0.4717" style="stop-color:#B46D2F"/>
			<stop  offset="0.6528" style="stop-color:#AA5829"/>
			<stop  offset="0.8303" style="stop-color:#A44B25"/>
			<stop  offset="1" style="stop-color:#A24724"/>
		</linearGradient>
		<path fill="url(#SVGID_3_)" d="M120.3,23l-8.6-15c-0.5-0.7-1.4-1.2-2.2-1.2H92.2c-0.9,0-1.8,0.5-2.2,1.3l-4.4,7.2l-1.2,2.2l-3,5.5
			c-0.4,0.7-0.4,1.8,0,2.5l3,5.3l1.2,2.2l4.3,7.5c0.4,0.7,1.4,1.3,2.2,1.3h17.3c0.9,0,1.8-0.5,2.2-1.3l8.6-15
			C120.7,24.8,120.7,23.8,120.3,23z M92.2,9.2h17.2c0,0,0.1,0,0.1,0.1l8.7,14.9c0,0,0,0.1,0,0.2l-8.6,14.9l-0.1,0.1H92.2
			c0,0-0.1,0-0.1-0.1l-5-8.7l-1.2-2.2l-2.3-4c0,0,0-0.1,0-0.2l2.3-4l1.2-2.2L92.2,9.2z"/>
	</g>
</g>
</svg>
